<svg xmlns="http://www.w3.org/2000/svg" width="1200" height="675" viewBox="0 0 1200 675">
  <rect width="1200" height="675" fill="#ffffff"/>
  <g stroke="#111111" stroke-width="5" stroke-linecap="round" stroke-linejoin="round">
    <path d="M140 118 L178 74 L211 108 L241 76 L266 127 L300 111 L282 164 L315 195 L258 194 L224 234 L179 204 L138 222 L151 170 L110 151 Z" fill="#15181f"/>
    <path d="M145 175 C148 105 282 104 286 180 C289 248 252 294 215 298 C174 302 139 245 145 175 Z" fill="#f4d2ad"/>
    <circle cx="188" cy="198" r="28" fill="#ffffff"/>
    <circle cx="245" cy="196" r="28" fill="#ffffff"/>
    <path d="M216 199 L221 201"/>
    <circle cx="190" cy="201" r="5" fill="#111111"/>
    <circle cx="247" cy="200" r="5" fill="#111111"/>
    <path d="M190 256 C210 266 232 263 244 253" fill="none"/>
    <path d="M172 315 L261 305 L323 420 L101 426 Z" fill="#222a38"/>
    <path d="M176 317 C203 355 233 353 262 309" fill="none"/>
    <path d="M198 346 L198 404 M245 342 L252 400" stroke="#f3f3f3" stroke-width="4"/>
    <path d="M75 424 L356 416 L386 560 L57 558 Z" fill="#e8e8e8"/>
    <path d="M104 452 L160 441 L168 501 L112 512 Z" fill="#f3df6f"/>
    <text x="119" y="486" font-family="Arial, sans-serif" font-size="34" fill="#111111" stroke="none">XL</text>
    <path d="M414 128 L449 86 L481 117 L520 83 L540 132 L579 115 L558 170 L595 195 L535 198 L501 237 L457 210 L414 228 L425 174 L386 152 Z" fill="#15181f"/>
    <path d="M419 180 C422 112 561 110 564 183 C566 250 528 296 490 299 C450 302 413 244 419 180 Z" fill="#f4d2ad"/>
    <circle cx="461" cy="200" r="27" fill="#ffffff"/>
    <circle cx="519" cy="198" r="27" fill="#ffffff"/>
    <path d="M489 202 L495 202"/>
    <circle cx="462" cy="203" r="5" fill="#111111"/>
    <circle cx="519" cy="201" r="5" fill="#111111"/>
    <path d="M468 258 C488 248 512 249 531 260" fill="none"/>
    <path d="M433 317 L528 307 L595 511 L370 515 Z" fill="#202836"/>
    <path d="M458 350 L458 470 M520 342 L532 469" stroke="#f3f3f3" stroke-width="4"/>
    <path d="M339 381 L619 365 L650 548 L372 569 Z" fill="#777777"/>
    <path d="M424 422 L463 410 L477 448 L436 463 Z" fill="#d4ecff"/>
    <path d="M516 400 L564 403 L558 449 L510 448 Z" fill="#f3dc55"/>
    <path d="M824 151 L856 105 L888 133 L923 102 L942 153 L974 137 L961 190 L998 210 L942 216 L913 255 L869 229 L825 246 L838 193 L799 172 Z" fill="#15181f"/>
    <path d="M828 204 C831 137 963 137 966 206 C968 268 933 312 897 314 C858 317 823 260 828 204 Z" fill="#f4d2ad"/>
    <circle cx="869" cy="221" r="25" fill="#ffffff"/>
    <circle cx="924" cy="220" r="25" fill="#ffffff"/>
    <path d="M896 223 L900 224"/>
    <circle cx="870" cy="224" r="5" fill="#111111"/>
    <circle cx="924" cy="223" r="5" fill="#111111"/>
    <path d="M882 276 L917 276" fill="none"/>
    <path d="M844 331 L937 326 L976 519 L804 523 Z" fill="#222a38"/>
    <path d="M862 358 L860 506 M921 352 L927 506" stroke="#f3f3f3" stroke-width="4"/>
    <path d="M805 356 C773 381 768 430 793 451" fill="none"/>
    <path d="M956 347 C1003 365 1027 404 1014 444" fill="none"/>
    <path d="M784 454 L838 445 L845 494 L792 501 Z" fill="#f3df6f"/>
    <path d="M1001 448 L1056 431 L1070 485 L1014 502 Z" fill="#b7d7ff"/>
    <text x="444" y="625" font-family="Arial, sans-serif" font-size="28" fill="#111111" stroke="none">role-01 Xiaoliang: messy hair + round glasses + dark hoodie</text>
  </g>
</svg>
