<svg xmlns="http://www.w3.org/2000/svg" width="1200" height="675" viewBox="0 0 1200 675">
  <rect width="1200" height="675" fill="#ffffff"/>
  <g stroke="#111111" stroke-width="5" stroke-linecap="round" stroke-linejoin="round">
    <path d="M124 456 L342 420 L382 564 L151 594 Z" fill="#8a6a4b"/>
    <path d="M178 359 L203 324 L236 353 L269 323 L288 371 L323 361 L308 408 L343 431 L290 433 L263 468 L224 444 L184 459 L194 410 L157 389 Z" fill="#141820"/>
    <path d="M184 410 C186 347 310 344 312 412 C315 471 278 512 245 515 C210 518 180 465 184 410 Z" fill="#f1cda9"/>
    <circle cx="221" cy="430" r="23" fill="#ffffff"/>
    <circle cx="272" cy="429" r="23" fill="#ffffff"/>
    <circle cx="222" cy="432" r="5" fill="#111111"/>
    <circle cx="273" cy="431" r="5" fill="#111111"/>
    <path d="M229 486 C246 477 267 479 281 489" fill="none"/>
    <path d="M202 529 L283 520 L318 623 L172 629 Z" fill="#202836"/>
    <path d="M223 552 L225 624 M270 548 L276 623" stroke="#eeeeee" stroke-width="4"/>
    <path d="M352 260 L756 226 L816 514 L409 548 Z" fill="#d7dde6"/>
    <path d="M395 294 L724 267 L744 473 L425 500 Z" fill="#ffffff"/>
    <path d="M451 337 L526 325 L535 383 L459 394 Z" fill="#f3df6f"/>
    <path d="M568 323 L675 313 L682 356 L576 370 Z" fill="#b7d7ff"/>
    <path d="M490 421 L704 398" fill="none"/>
    <path d="M826 296 L1041 273 L1072 438 L854 462 Z" fill="#f3df6f"/>
    <path d="M856 322 L1012 306 L1020 344 L865 361 Z" fill="#ffffff"/>
    <path d="M870 384 L1019 368" fill="none"/>
    <path d="M823 500 L930 478 L952 591 L841 612 Z" fill="#eeeeee"/>
    <path d="M860 532 L914 521 M866 560 L923 548" fill="none" stroke-width="3"/>
    <path d="M128 596 L1060 584" fill="none" stroke-width="3"/>
    <path d="M107 298 L167 284 L184 341 L123 357 Z" fill="#f4e38f"/>
    <path d="M94 256 L166 235 L177 277 L106 298 Z" fill="#d8f4d1"/>
    <path d="M876 174 C920 156 966 156 1014 177" fill="none"/>
    <path d="M897 197 C944 184 981 184 1024 201" fill="none"/>
    <text x="401" y="633" font-family="Arial, sans-serif" font-size="28" fill="#111111" stroke="none">role-01 in article scenes: messy desk, laptop, notes, coffee, awkward scale</text>
  </g>
</svg>
